<?xml version="1.0" encoding="utf-8"?>
<!-- Svg Vector Icons : http://www.onlinewebfonts.com/icon -->
<!DOCTYPE svg PUBLIC "-//W3C//DTD SVG 1.1//EN" "http://www.w3.org/Graphics/SVG/1.1/DTD/svg11.dtd">
<svg version="1.1" xmlns="http://www.w3.org/2000/svg" xmlns:xlink="http://www.w3.org/1999/xlink" x="0px" y="0px" viewBox="0 0 256 256" enable-background="new 0 0 256 256" xml:space="preserve">
<metadata> Svg Vector Icons : http://www.onlinewebfonts.com/icon </metadata>
<g><g><g><path fill="#000000" d="M60.6,31.1l-1.3,1.3v19.4v19.4L55.4,73c-2.2,1.1-4.9,2.6-6.1,3.4c-9.6,6.6-16.5,16.7-18.8,27.8c-0.7,3.6-1.1,13.5-0.5,15.3c0.2,0.6-0.4,1.3-2.5,2.9c-6.5,4.7-11.5,12.5-15.2,23.5c-2.4,6.9-2.6,8.7-1.7,10.6c1,1.9,2.3,2.5,5.1,2.4c2.5,0,12.3-1.6,13.8-2.2c0.5-0.2-0.6,1.3-2.4,3.3c-6,6.5-11.2,15.2-13.8,23.2c-2.6,7.9-3,10.5-3.2,25c-0.2,10.4-0.1,14.1,0.3,15.1c1.2,2.9-2.7,2.7,63.9,2.7H135l1.3-1.3l1.3-1.3v-13.4v-13.4H190c36.6,0,52.6-0.1,53.4-0.5c0.6-0.3,1.4-1.1,1.8-1.8c0.7-1.2,0.8-7.5,0.8-81.1c0-86.8,0.1-81.7-2.5-82.9c-0.9-0.4-22.5-0.6-91.3-0.6H62L60.6,31.1z M236.3,113.2V187h-50.1H136l-1.3-4.2c-0.7-2.3-2.4-6.4-3.8-9.1l-2.5-4.9l14.1-14.2l14.2-14.2l-0.3-2.2c-0.3-3-1.8-4.3-4.8-4.3h-2.1L136,147.5l-13.5,13.4l-3.5-3.3c-4.3-4-8.1-6.9-12.3-9.4l-3.2-1.9l2-2.2c5.5-5.9,9.3-12.6,11.2-20.1c1.6-6.2,1.7-14.6,0.3-20.6c-4-16.1-15.4-28.2-31.3-32.8c-3.2-1-5.5-1.3-10.4-1.5L69,68.9V54.2V39.5h83.7h83.7L236.3,113.2L236.3,113.2z M84.4,80.7c5.2,1.7,9.1,4.1,13.4,8.4c3.2,3.1,6.6,7.8,6.6,9.1c0,0.6-4,0.4-7.7-0.4c-7-1.4-11.9-4.1-17.9-10c-3.8-3.6-3.9-3.7-5.8-3.5c-2.6,0.4-4.3,2.3-4.7,5.3c-1.8,11.8-11.1,22.7-22.9,26.6c-4.8,1.6-5.3,1.6-5.7-0.4c-0.7-3.9,1-12.7,3.3-17.4c4.7-9.3,12.4-15.6,22.4-18.3C70.3,78.7,79.3,79,84.4,80.7z M79.1,100.8c6.8,4.7,13.9,6.9,23,7.2l6.1,0.3v4.6c0,5.9-1,10.2-3.5,15.4c-4.4,9.1-12.1,15.4-22.2,18.3c-4.9,1.3-12.3,1.3-17.3,0c-5.3-1.4-10.4-4.2-14.4-8c-3.1-3-8-9.5-8-10.8c0-0.3,1.4-0.9,3.1-1.3c4.2-1.1,11.7-4.7,15.1-7.3c5.7-4.3,11.2-11.2,13.8-17.3c0.7-1.6,1.3-2.8,1.4-2.8C76.3,99,77.6,99.8,79.1,100.8z M34.6,133.4c0.7,1.5,2.2,3.9,3.3,5.5l2,2.8l-2.4,1.4c-3.1,1.9-6.5,3.2-11.1,4.3c-2.1,0.5-3.9,0.9-4.1,0.9c-0.7,0-0.3-1.3,2.2-6.3c1.8-3.8,3.3-6,5.3-8.2c1.6-1.7,3-3,3.1-3C33.1,130.8,33.8,132,34.6,133.4z M59,154.8c10.1,3.7,22.4,3.4,32-0.8l2.9-1.2l3.5,1.7c13.9,6.6,24.3,18.7,28.4,33.1c1.7,5.9,2.1,10.1,2.1,20.1v8.9H73.8H19.6v-7.1c0-13.4,1.5-20.9,5.8-29.6c4.1-8.4,9.8-15.1,17.2-20.4c4.1-3,11.2-6.6,12.1-6.3C55,153.4,57,154.1,59,154.8z"/><path fill="#000000" d="M134.4,60.6c-2.2,2.3-1.6,6.5,1.2,7.8c0.9,0.4,9.1,0.6,32.1,0.6h30.9l1.6-1.6c1.1-1.1,1.6-2,1.6-3c0-2-1.1-3.9-2.5-4.6c-0.9-0.4-9.2-0.6-32.3-0.6h-31.2L134.4,60.6z"/><path fill="#000000" d="M134.4,90.1c-2.2,2.3-1.6,6.5,1.2,7.8c0.9,0.4,11.2,0.6,41.6,0.6c39,0,40.5,0,41.9-0.9c2.9-1.8,3-5.7,0.3-7.9c-1.1-0.9-2.1-0.9-42.4-0.9h-41.3L134.4,90.1z"/><path fill="#000000" d="M134.4,119.7c-2.2,2.3-1.6,6.5,1.2,7.8c0.9,0.4,11.2,0.6,41.5,0.6c44.9,0,42.5,0.2,43.8-3.1c0.9-2.1,0.5-4-1.3-5.4l-1.4-1.2H177h-41.3L134.4,119.7z"/></g></g></g>
</svg>